<svg width="84" height="84" viewBox="0 0 84 84" fill="none" xmlns="http://www.w3.org/2000/svg">
<circle cx="42" cy="42" r="42" fill="black"/>
<path d="M23.8002 31.4306H25.716C28.3147 31.4306 30.8101 32.4141 32.7431 34.2001C32.926 34.3693 33.155 34.4525 33.382 34.4525C33.6445 34.4525 33.9069 34.3416 34.0956 34.123C34.4481 33.7153 34.4146 33.09 34.0209 32.7258C31.7363 30.6143 28.787 29.4517 25.716 29.4517H23.8002C23.2705 29.4517 22.8423 29.894 22.8423 30.4411C22.8423 30.9883 23.2705 31.4306 23.8002 31.4306Z" fill="white" stroke="white"/>
<path d="M47.9305 21.9439C47.6192 22.3852 47.7131 23.0047 48.1422 23.3252L56.2967 29.4521H48.7054C41.8392 29.4521 36.2528 35.2227 36.2528 42.3152C36.2528 48.3164 31.5256 53.1994 25.716 53.1994H23.8002C23.2705 53.1994 22.8423 53.6417 22.8423 54.1889C22.8423 54.7361 23.2705 55.1784 23.8002 55.1784H25.716C32.5822 55.1784 38.1686 49.4078 38.1686 42.3152C38.1686 36.3141 42.8958 31.431 48.7054 31.431H56.2967L48.1422 37.5568C47.714 37.8774 47.6192 38.4968 47.9305 38.9382C48.1173 39.2053 48.4094 39.3458 48.7064 39.3458C48.9018 39.3458 49.0982 39.2835 49.2687 39.1568L60.8707 30.4415L49.2687 21.7253C48.8395 21.4037 48.2418 21.5007 47.9305 21.9439Z" fill="white" stroke="white"/>
<path d="M47.9305 45.6905C47.6192 46.1318 47.713 46.7512 48.1422 47.0718L56.2967 53.1986H48.7054C46.1335 53.1986 43.6573 52.2329 41.7339 50.4796C41.3402 50.1184 40.7338 50.157 40.3823 50.5676C40.0326 50.9773 40.07 51.6026 40.4675 51.9638C42.7406 54.0367 45.667 55.1776 48.7054 55.1776H56.2967L48.1422 61.3034C47.714 61.624 47.6192 62.2434 47.9305 62.6847C48.1173 62.9519 48.4094 63.0924 48.7064 63.0924C48.9018 63.0924 49.0982 63.03 49.2687 62.9034L60.8707 54.1881L49.2687 45.4718C48.8395 45.1503 48.2418 45.2472 47.9305 45.6905Z" fill="white" stroke="white"/>
</svg>
